<svg aria-hidden="true" style="position:absolute;width:0;height:0;overflow:hidden" xmlns="http://www.w3.org/2000/svg">
  <defs>
    <symbol id="icon-instagram-choco" viewBox="0 0 32 32">
      <path stroke-linejoin="round" stroke-linecap="round" stroke-width="2.667"
        d="M22.667 2.667H9.334a6.667 6.667 0 0 0-6.667 6.667v13.333a6.667 6.667 0 0 0 6.667 6.667h13.333a6.667 6.667 0 0 0 6.667-6.667V9.334a6.667 6.667 0 0 0-6.667-6.667z" />
      <path stroke-linejoin="round" stroke-linecap="round" stroke-width="2.667"
        d="M21.333 15.16a5.334 5.334 0 0 1-10.548 1.596l-.004-.03a5.334 5.334 0 0 1 10.548-1.596l.004.03z" />
      <path stroke-linejoin="round" stroke-linecap="round" stroke-width="2.667"
        d="M21.333 15.16a5.334 5.334 0 0 1-10.548 1.596l-.004-.03a5.334 5.334 0 0 1 10.548-1.596l.004.03zm2-6.493h.013m-.013 0h.013" />
    </symbol>
    <symbol id="icon-twitter-choco" viewBox="0 0 32 32">
      <path stroke-linejoin="round" stroke-linecap="round" stroke-width="2.667"
        d="M30.667 4a14.37 14.37 0 0 1-4.084 2.013l-.103.027a5.973 5.973 0 0 0-10.479 4.004v-.004 1.333a14.154 14.154 0 0 1-6.838-1.55l.08.037C7.15 8.807 4.683 6.297 3.335 4.38c0 0-4.667 12.953 7.333 18.287a15.387 15.387 0 0 1-9.364 2.666l.031.001c12 6.667 26.667 0 26.667-15.333 0-.372-.037-.741-.107-1.107a10.277 10.277 0 0 0 2.758-4.822l.015-.071z" />
    </symbol>
    <symbol id="icon-closed" viewBox="0 0 32 32">
      <path
        d="M32 3.223 28.777 0 16 12.777 3.223 0 0 3.223 12.777 16 0 28.777 3.223 32 16 19.223 28.777 32 32 28.777 19.223 16 32 3.223z" />
    </symbol>
    <symbol id="icon-instagram" viewBox="0 0 32 32">
      <path
        d="M31.969 9.408c-.075-1.7-.35-2.869-.744-3.882a7.803 7.803 0 0 0-1.85-2.838A7.867 7.867 0 0 0 26.543.844C25.524.45 24.361.175 22.661.1 20.948.019 20.404 0 16.06 0s-4.888.019-6.595.094c-1.7.075-2.869.35-3.882.744a7.803 7.803 0 0 0-2.838 1.85A7.867 7.867 0 0 0 .901 5.52C.507 6.539.232 7.702.157 9.402c-.081 1.713-.1 2.257-.1 6.601s.019 4.888.094 6.595c.075 1.7.35 2.869.744 3.882a7.895 7.895 0 0 0 1.85 2.838 7.867 7.867 0 0 0 2.832 1.844c1.019.394 2.182.669 3.882.744 1.706.075 2.25.094 6.595.094s4.888-.019 6.595-.094c1.7-.075 2.869-.35 3.882-.744a8.181 8.181 0 0 0 4.682-4.682c.394-1.019.669-2.182.744-3.882.075-1.707.094-2.25.094-6.595s-.006-4.888-.081-6.595zm-2.882 13.065c-.069 1.563-.331 2.407-.55 2.969a5.31 5.31 0 0 1-3.038 3.038c-.563.219-1.413.481-2.969.55-1.688.075-2.194.094-6.464.094s-4.782-.019-6.464-.094c-1.563-.069-2.407-.331-2.969-.55a4.926 4.926 0 0 1-1.838-1.194 4.974 4.974 0 0 1-1.194-1.838c-.219-.563-.481-1.413-.55-2.969-.075-1.688-.094-2.194-.094-6.464s.019-4.782.094-6.464c.069-1.563.331-2.407.55-2.969a4.868 4.868 0 0 1 1.2-1.838A4.974 4.974 0 0 1 6.639 3.55c.563-.219 1.413-.481 2.969-.55 1.688-.075 2.194-.094 6.464-.094 4.276 0 4.782.019 6.464.094 1.563.069 2.407.331 2.969.55a4.914 4.914 0 0 1 1.838 1.194 4.974 4.974 0 0 1 1.194 1.838c.219.563.481 1.413.55 2.969.075 1.688.094 2.194.094 6.464s-.019 4.77-.094 6.458z" />
      <path
        d="M16.059 7.783c-4.538 0-8.22 3.682-8.22 8.22s3.682 8.22 8.22 8.22 8.22-3.682 8.22-8.22-3.682-8.22-8.22-8.22zm0 13.552a5.333 5.333 0 0 1 0-10.664 5.333 5.333 0 0 1 0 10.664zM26.524 7.458a1.919 1.919 0 1 1-3.838 0 1.919 1.919 0 0 1 3.838 0z" />
    </symbol>
    <symbol id="icon-twitter" viewBox="0 0 32 32">
      <path
        d="M32 6.078c-1.19.522-2.458.868-3.78 1.036a6.523 6.523 0 0 0 2.886-3.626 13.11 13.11 0 0 1-4.16 1.588A6.574 6.574 0 0 0 22.154 3c-3.632 0-6.556 2.948-6.556 6.562 0 .52.044 1.02.152 1.496-5.454-.266-10.28-2.88-13.522-6.862a6.605 6.605 0 0 0-.898 3.316 6.57 6.57 0 0 0 2.914 5.452 6.479 6.479 0 0 1-2.964-.808v.072c0 3.188 2.274 5.836 5.256 6.446a6.548 6.548 0 0 1-1.72.216 5.8 5.8 0 0 1-1.242-.112c.85 2.598 3.262 4.508 6.13 4.57a13.182 13.182 0 0 1-8.134 2.798c-.538 0-1.054-.024-1.57-.09A18.469 18.469 0 0 0 10.064 29c12.072 0 18.672-10 18.672-18.668 0-.29-.01-.57-.024-.848A13.087 13.087 0 0 0 32 6.078z" />
    </symbol>
    <symbol id="icon-checked" viewBox="0 0 40 32">
      <path
        d="M33.782 1.02a3.668 3.668 0 0 1 5.115.039 3.712 3.712 0 0 1 .135 5.141L19.454 30.817a3.674 3.674 0 0 1-4.074.914 3.675 3.675 0 0 1-1.226-.815L1.17 17.862A3.693 3.693 0 0 1-.001 15.22a3.714 3.714 0 0 1 1.077-2.682 3.664 3.664 0 0 1 4.1-.763 3.68 3.68 0 0 1 1.195.857l10.275 10.325 17.042-21.83c.031-.038.063-.074.098-.109h-.005z" />
    </symbol>
    <symbol id="icon-chocolate" viewBox="0 0 31 32">
      <path fill="#e9e9e9" style="fill:var(--color1, #e9e9e9)" d="M0 0h30.545v32H0V0z" />
      <path fill="#fafafa" style="fill:var(--color2, #fafafa)" d="M-244.364-33.455h545.455V7389.09h-545.455V-33.455z" />
      <path fill="#fcf1e0" style="fill:var(--color3, #fcf1e0)"
        d="M3.765 19.89 14.052 3.258l.611-.643 7.861 5.242.054 3.163 1.919 3.13-8.476 13.437-12.256-7.696z" />
      <path fill="none" stroke="#fd9222" style="stroke:var(--color4, #fd9222)" stroke-linejoin="round"
        stroke-linecap="round" stroke-width="2.618"
        d="M20.651 23.521 7.11 15.06m3.734-6.125 13.541 8.461m-14.238 8.02L21.349 7.041m4.592 7.803c-2.902-1.813-4.041-3.23-2.174-6.293l-9.188-5.742L3.377 21.184l13.541 8.461 9.024-14.802z" />
    </symbol>
    <symbol id="icon-burger-btn" viewBox="0 0 32 32">
      <path
        d="M4.799 8.001a1.6 1.6 0 0 1 1.6-1.6h19.2a1.6 1.6 0 0 1 0 3.2h-19.2a1.6 1.6 0 0 1-1.6-1.6zM4.799 16.001a1.6 1.6 0 0 1 1.6-1.6h19.2a1.6 1.6 0 0 1 0 3.2h-19.2a1.6 1.6 0 0 1-1.6-1.6zM4.799 24.001a1.6 1.6 0 0 1 1.6-1.6h19.2a1.6 1.6 0 0 1 0 3.2h-19.2a1.6 1.6 0 0 1-1.6-1.6z" />
    </symbol>
    <symbol id="icon-closed" viewBox="0 0 32 32">
      <path
        d="M32 3.223 28.777 0 16 12.777 3.223 0 0 3.223 12.777 16 0 28.777 3.223 32 16 19.223 28.777 32 32 28.777 19.223 16 32 3.223z" />
    </symbol>
  </defs>
</svg>